<svg xmlns="http://www.w3.org/2000/svg" viewBox="0 0 283.46 283.46"><defs><style>.cls-1,.cls-2,.cls-3{fill:#211915;}.cls-1,.cls-2,.cls-4{stroke:#211915;}.cls-1,.cls-4{stroke-miterlimit:10;}.cls-2{stroke-linecap:round;stroke-linejoin:round;}.cls-4{fill:none;stroke-width:3px;}</style></defs><title>PuercoNegro</title><g id="Capa_2" data-name="Capa 2"><path class="cls-1" d="M186.58,78.36s-8.44,11.32-27.3,11.32-18.5-11.32-54.07-11.32a50.91,50.91,0,0,1,29.64-9.52C152.63,68.84,154.07,78.36,186.58,78.36Z"/></g><g id="Capa_3" data-name="Capa 3"><path class="cls-2" d="M91,70.82s9-4.49-6.83-11-67.12,11.44-67,23.41,15.33,2.4,21.08,27.43,17.6,24.19,24.55,23,18.56-11,19.16-18.08a33.45,33.45,0,0,0-1.2-12.34s-14.13-13-24.19-13-14.61,22-14.61,22S41.5,96.45,33.24,92s-13.78-8.75-7.91-13.66S87.72,55.61,91,70.82Z"/><path class="cls-1" d="M202.09,85s-16.05-5-8.62-14.61,17-15.45,43.11-1.5,33.77,10.42,33.77,10.42,16.77-4.61-18.2,39.46c0,0-20.36,26.11-29.7,21.8S202.57,123,202.57,123s-2.73-23.9,9.58-19.88,29.1,17.13,36.88,9.34S263.4,87.83,263.4,87.83s-3.35-12.94-41.91-17.49C221.49,70.34,212.39,68.66,202.09,85Z"/></g><g id="Capa_5" data-name="Capa 5"><path class="cls-3" d="M79,134.16a136.81,136.81,0,0,0-2.09,29.64,100.73,100.73,0,0,0,1.62,14.64c.25,1.19.44,2.4.74,3.58l.89,3.55a70.34,70.34,0,0,0,2.35,6.87l.66,1.69.79,1.63.78,1.63.39.81.46.78,1.8,3.11,2,2.93a30,30,0,0,0,2.25,2.78l1.15,1.36c.39.45.85.83,1.27,1.25.87.82,1.69,1.68,2.59,2.45l2.81,2.19A51.6,51.6,0,0,0,112,221.82l1.67.65a12.61,12.61,0,0,0,1.7.58l3.47,1,1.74.49,1.78.33,3.56.67a35.42,35.42,0,0,0,3.6.49l3.61.41c1.2.18,2.43.14,3.65.21l3.65.14c4.9.09,9.85,0,14.76-.3l1.84-.08,1.84-.15,3.68-.3c2.45-.19,4.87-.57,7.31-.85a121.82,121.82,0,0,0,14.35-3,72.5,72.5,0,0,0,13.59-5.21,43.87,43.87,0,0,0,11.69-8.45,33,33,0,0,0,9.59-26.71c2.22,9.79-.94,20.68-7.78,28.37a46.5,46.5,0,0,1-11.92,9.67,72,72,0,0,1-14,6.07c-9.7,3.17-19.8,4.6-29.85,5.36-5,.37-10.06.5-15.12.47l-3.82-.12c-1.27-.06-2.55,0-3.82-.19l-3.81-.4a37.83,37.83,0,0,1-3.81-.5l-3.78-.74-1.89-.37-1.86-.53-3.72-1.08a13.23,13.23,0,0,1-1.83-.64l-1.81-.71a54.39,54.39,0,0,1-13.59-7.55l-3-2.48c-1-.87-1.85-1.83-2.78-2.75-.45-.47-.94-.9-1.35-1.41l-1.24-1.51a35.15,35.15,0,0,1-2.37-3.09,54.68,54.68,0,0,1-7-13.76A69.9,69.9,0,0,1,75.29,179a100.94,100.94,0,0,1-.84-15.13A116.2,116.2,0,0,1,79,134.16Z"/></g><g id="Capa_7" data-name="Capa 7"><line class="cls-4" x1="35.87" y1="198" x2="82.71" y2="198"/><line class="cls-4" x1="268.67" y1="198" x2="254.66" y2="198"/></g><g id="Capa_6" data-name="Capa 6"><path class="cls-2" d="M51,169.62s-31.26-8.09-33.77,1.26,3.59,16.7,15.09,16.7,7.9,12.4,7.9,12.4l-14.91,8.26L22,203.39s-5.93,9.16-10.6,0S6.59,155.79,35,160.28C35,160.28,42.88,161,51,169.62Z"/><path class="cls-2" d="M237.42,153.09s20.48,13.65,19.76,23.71-9,34.85-19.76,27.49-21.38-3.78-16.71,7c0,0-.72,12.94,9,10.42l6.65-3.59s8.8,12.57,14.91-.54,12.93-33.41,8.62-47.6S237.42,153.09,237.42,153.09Z"/></g><g id="Capa_8" data-name="Capa 8"><path class="cls-3" d="M104,112.34A11.56,11.56,0,1,1,92.48,123.9,11.57,11.57,0,0,1,104,112.34m0-2A13.56,13.56,0,1,0,117.6,123.9,13.56,13.56,0,0,0,104,110.34Z"/><path class="cls-3" d="M181.12,115.24a11.56,11.56,0,1,1-11.56,11.56,11.57,11.57,0,0,1,11.56-11.56m0-2a13.56,13.56,0,1,0,13.56,13.56,13.56,13.56,0,0,0-13.56-13.56Z"/><path class="cls-3" d="M107.63,132.87a9,9,0,1,1,9-9A9,9,0,0,1,107.63,132.87Zm3.9-12.26a3.29,3.29,0,1,0,3.29,3.29A3.3,3.3,0,0,0,111.53,120.61Z"/><path class="cls-3" d="M107.63,115.93a8,8,0,0,1,7.75,6.08,4.29,4.29,0,1,0,0,3.78,8,8,0,1,1-7.75-9.86m0-2a10,10,0,1,0,10,10,10,10,0,0,0-10-10Zm3.9,12.26a2.29,2.29,0,1,1,2.29-2.29,2.28,2.28,0,0,1-2.29,2.29Z"/><path class="cls-3" d="M184.71,135.77a9,9,0,1,1,9-9A9,9,0,0,1,184.71,135.77Zm3.9-12.26a3.29,3.29,0,1,0,3.29,3.29A3.29,3.29,0,0,0,188.61,123.51Z"/><path class="cls-3" d="M184.71,118.83a8,8,0,0,1,7.75,6.08,4.29,4.29,0,1,0,0,3.78,8,8,0,1,1-7.75-9.86m0-2a10,10,0,1,0,10,10,10,10,0,0,0-10-10Zm3.9,12.26a2.29,2.29,0,1,1,2.29-2.29,2.28,2.28,0,0,1-2.29,2.29Z"/></g><g id="Capa_9" data-name="Capa 9"><path class="cls-3" d="M190.9,163.75a94.7,94.7,0,0,1-6.78,13.83,89.68,89.68,0,0,1-9,12.65,54.92,54.92,0,0,1-11.76,10.49,32.91,32.91,0,0,1-7.28,3.53,26.31,26.31,0,0,1-8.09,1.48,42.69,42.69,0,0,1-15.73-2.82,31.59,31.59,0,0,1-12.86-9.53c-.84-1-1.54-2.19-2.31-3.27s-1.29-2.33-1.89-3.5-1-2.44-1.47-3.68-.8-2.5-1.1-3.77a49.19,49.19,0,0,1-1.1-15.41,61,61,0,0,0,3,14.86,36.46,36.46,0,0,0,7.28,12.76,29.81,29.81,0,0,0,11.85,8,39.87,39.87,0,0,0,14.28,2.35,26.77,26.77,0,0,0,13.45-4.22,48.59,48.59,0,0,0,6-4.28q2.82-2.41,5.46-5.09a111.7,111.7,0,0,0,9.65-11.63C185.49,172.42,188.28,168.15,190.9,163.75Z"/><path class="cls-3" d="M133.59,214.53a18.27,18.27,0,0,1,6.91-2.84,23.39,23.39,0,0,1,7.56-.34,24.39,24.39,0,0,1,7.28,2,23.87,23.87,0,0,1,3.31,1.77,30.1,30.1,0,0,1,3,2.27c-1.18-.42-2.27-1-3.41-1.4s-2.25-.88-3.41-1.18c-.58-.16-1.15-.35-1.71-.52l-1.75-.39a16.69,16.69,0,0,0-1.74-.33,17.33,17.33,0,0,0-1.76-.25l-1.76-.18c-.59,0-1.19,0-1.78-.05-1.18,0-2.37,0-3.56.13A36.51,36.51,0,0,0,133.59,214.53Z"/><path class="cls-3" d="M193,153.09a4.63,4.63,0,0,1,2.89-.65,4,4,0,0,1,2.87,1.63,4.56,4.56,0,0,1,.68,3.15,8.52,8.52,0,0,1-.41,1.44,7.19,7.19,0,0,1-.76,1.25,10.81,10.81,0,0,1-.21-1.4l-.19-1.28a5.78,5.78,0,0,0-.75-2A3.82,3.82,0,0,0,195.5,154,19.15,19.15,0,0,0,193,153.09Z"/></g><g id="Capa_10" data-name="Capa 10"><path class="cls-3" d="M141.74,138.12c-25,0-36.17,6.72-36.17,21.8,0,13,12.2,19.31,14.46,20.37.53,2.44,4.06,15.57,18.31,16.27l1,0c14.35,0,25.69-14.46,27-16.22,14.4-6.65,15.44-13.53,15.44-24C181.83,145.27,166.1,138.12,141.74,138.12Zm-16.17,28.62h-.48c-5.92,0-9.58-1-10.89-3a2.94,2.94,0,0,1-.31-2.67,16.71,16.71,0,0,1,13.21-7.49c8.44-.21,10,5.18,10.18,5.79a4.6,4.6,0,0,1-.71,3.85C134.94,165.5,131.24,166.69,125.57,166.74Zm25.57,16.82a23.6,23.6,0,0,1-6.37,1,27.08,27.08,0,0,1-6.34-.58,18.77,18.77,0,0,1-6-2.3,39,39,0,0,1,6.24-1.09c2-.2,4-.29,6-.34s4-.05,6-.05l6.22.06A13.84,13.84,0,0,1,151.14,183.56Zm23.19-22c-1.76,1.61-6.73,2.52-11.71,2.52-4.62,0-9.26-.78-11.37-2.53a3,3,0,0,1-.65-4.19c4.61-7.51,12.53-5.21,13.65-4.84a13.41,13.41,0,0,1,10.44,6A2.19,2.19,0,0,1,174.33,161.59Z"/></g></svg>