<svg xmlns="http://www.w3.org/2000/svg" viewBox="0 0 283.46 283.46"><defs><style>.cls-1{fill:#d34e1a;}</style></defs><title>IconosIconoDineroNaranja</title><g id="Icono_Dinero" data-name="Icono Dinero"><g id="Dinero_Naranja" data-name="Dinero Naranja"><g id="Group_3" data-name="Group 3"><g id="Group_2" data-name="Group 2"><path id="Path_3" data-name="Path 3" class="cls-1" d="M279.48,144.76a4.86,4.86,0,0,0-1.71-1.72h.3L98.9,34.16a4.86,4.86,0,0,0-4.89,0L5.26,81.57a4.88,4.88,0,0,0-2.19,6.55,4.79,4.79,0,0,0,1.76,1.95L184.24,201.61a4.87,4.87,0,0,0,5,.09l88.56-50.25a4.88,4.88,0,0,0,1.71-6.69Zm-92.36,47.18L17.32,86.21l78.9-42.27,169.5,103.18Z"/></g></g><g id="Group_5" data-name="Group 5"><g id="Group_4" data-name="Group 4"><path id="Path_4" data-name="Path 4" class="cls-1" d="M279.58,168.57a4.89,4.89,0,0,0-6.67-1.82h.28l-86,48.88L10.09,105.51a4.92,4.92,0,0,0-5.41,8.22l.14.09L184.24,225.37a4.87,4.87,0,0,0,5,.1l88.56-50.2A4.92,4.92,0,0,0,279.58,168.57Z"/></g></g><g id="Group_7" data-name="Group 7"><g id="Group_6" data-name="Group 6"><path id="Path_5" data-name="Path 5" class="cls-1" d="M278.53,192.15a4.88,4.88,0,0,0-5.35-1.59l-86.26,48.88L10.09,129.28a4.92,4.92,0,1,0-5.41,8.21l.14.1L184.24,249.23a4.87,4.87,0,0,0,5,.1L277.77,199a4.89,4.89,0,0,0,.78-6.87h0Z"/></g></g><g id="Group_9" data-name="Group 9"><g id="Group_8" data-name="Group 8"><path id="Path_6" data-name="Path 6" class="cls-1" d="M169.47,91.65a4.88,4.88,0,0,0-6.85-.76h0c-.13.11-.26.22-.38.34L157,96.13a22.16,22.16,0,0,0-5.46-3.62,15.48,15.48,0,0,0-8.35-1.37,12.57,12.57,0,0,0-6.78,3.08,10.72,10.72,0,0,0-3.66,6.5,17.32,17.32,0,0,0,.83,7.92,55,55,0,0,0,2.54,6.16l-9.76,8.74a8.54,8.54,0,0,1-.29-1,13.66,13.66,0,0,1,.73-7,10.85,10.85,0,0,0,.69-3.28,4.36,4.36,0,0,0-1.27-2.89,5,5,0,0,0-7-.68l-.17.15a10.36,10.36,0,0,0-3.08,5.82,16.77,16.77,0,0,0,.88,8.7,24.87,24.87,0,0,0,3,5.89l-5.61,4.89a4.89,4.89,0,0,0,3.26,8.55l-.1.15a4.88,4.88,0,0,0,3.28-1.23l5.52-4.88a28.74,28.74,0,0,0,6.1,4.39,14.62,14.62,0,0,0,17.37-2.19,10.4,10.4,0,0,0,3.28-5.47,16,16,0,0,0-.25-7.24,40.88,40.88,0,0,0-3.79-9.33v-.3L157,109.3a11.26,11.26,0,0,1,0,4,21.91,21.91,0,0,0-.41,4.5,4.88,4.88,0,0,0,1.37,3.18,5.73,5.73,0,0,0,3.75,2.15,4.89,4.89,0,0,0,3.56-1.27,7.28,7.28,0,0,0,2.1-3.67,13.42,13.42,0,0,0,0-5.43,22,22,0,0,0-2.31-6.61,27.35,27.35,0,0,0-1.66-2.74l5.32-4.89a4.89,4.89,0,0,0,.78-6.87Zm-30,39.77a4.87,4.87,0,0,1-4.44.73,8.6,8.6,0,0,1-2.73-1.22l8.25-7.18a17.9,17.9,0,0,1,.83,2.79A5.2,5.2,0,0,1,139.49,131.42Zm4.83-23.95a11.24,11.24,0,0,1-.43-2.3,3.88,3.88,0,0,1,1.26-3.57,4.21,4.21,0,0,1,4.16-.73,8.91,8.91,0,0,1,1.41.63Z"/></g></g></g></g></svg>