<svg xmlns="http://www.w3.org/2000/svg" viewBox="0 0 283.46 283.46"><defs><style>.cls-1{fill:#d34e1a;}</style></defs><title>IconosIconoMexicoNaranja</title><g id="Icono_Mexico" data-name="Icono Mexico"><path id="MexicoNaranja" class="cls-1" d="M6,51a37.55,37.55,0,0,0,2.78,5.05,1.55,1.55,0,0,1,.27,1,22.3,22.3,0,0,0,1.06,9.15c1.71,4.56.24,2.27,4.56,10.41,3.57,6.7,5.42,3.57,9.13,9,0,0,3.25.93,2.86,11.2a2.36,2.36,0,0,1-3.19,2.1A16.48,16.48,0,0,0,18.4,98c-2-.07-1.25,1.55.79,3.73a30.09,30.09,0,0,0,10.29,7c4.93,2.09,13.15,7.71,14,22.1a1.57,1.57,0,0,0,.05.3c.3,1.06,2.37,7.27,11.08,14A21,21,0,0,1,59.14,150c1.86,2.75,5.12,5.66,8.11-1.19a1.47,1.47,0,0,0,.1-.9c-.56-2.85-3.75-17.68-8-13.5a1.45,1.45,0,0,1-1.87.12c-1.68-1.22-4.32-1.85-4.52-6.64a23.89,23.89,0,0,0-.49-2.83c-.29-.49-.91-2.18-1.84-8-1.11-6.94-3.11-5.23-6.25-9.51s.43-11.41-12.26-26.24c-.09-.11-2.63-1.54-2.74-1.62-.59-.37-2.08-1.63-2.64-6a1.53,1.53,0,0,1,.06-.67c.45-1.45,2.07-7.56-.67-12.8,0,0,1.24,3,6.69,5.37a9,9,0,0,1,4.8,4.76A32.21,32.21,0,0,0,41,76.89a1.56,1.56,0,0,1,.25.66,32.35,32.35,0,0,0,7.82,16.77,1.31,1.31,0,0,1,.2.28c.32.66,2,3.67,7.88,8.72a1.53,1.53,0,0,1,.45.64,26.38,26.38,0,0,0,10.55,12.79,1.54,1.54,0,0,1,.28,2.39,7.84,7.84,0,0,0-2.11,3.29c-.86,2.85,8.56,3.14,13.12,9.7s3.71,6.84,9.7,13.41,23.11,23.39,10.27,33.37c0,0-2.94.86,4.66,6,7.4,5,11.65,8.1,14.51,11.94a1.41,1.41,0,0,0,.6.48c2.12.93,12.91,5.66,16.89,7.76a1.59,1.59,0,0,1,.27.18c1.27,1,5.08,7.88,29,11.61.2,0,8.72,2.91,8.89,3,2.64,1.47,20.31,11.07,28-2.18a1.34,1.34,0,0,1,.51-.52c1.24-.69,5.85-2.11,15.94,6.5a1.44,1.44,0,0,0,.54.3,21.62,21.62,0,0,1,10.43,7.85,1.59,1.59,0,0,0,1.93.54c1.77-.8,4.3-2.58-.28-5.05a1.54,1.54,0,0,1-.8-1.63c.52-2.77,2.74-9.46,11.82-8.55,0,0,15.41,1.71-5.13-9.41,0,0-4.86-1.94,3.56-2.69a1.57,1.57,0,0,0,1.35-2,6.32,6.32,0,0,1-.17-2.8,1.56,1.56,0,0,1,1.79-1.31,24.14,24.14,0,0,0,23-8.7,1.53,1.53,0,0,1,2.15-.22c2.21,1.79,6.38,3.86,1.89-11a1.5,1.5,0,0,1,.15-1.24c2.24-3.71,14-24-.71-18.06a1.3,1.3,0,0,1-.43.11c-2.42.18-24.41,2.06-27.25,10a1.57,1.57,0,0,0,.15,1.32c1.23,2,4.66,9.72-6.18,18.29a1.54,1.54,0,0,0-.57,1.4,5,5,0,0,1-.85,3.48,1.54,1.54,0,0,1-2.78-1.07c.27-2.22-1.2-3.93-9.65.32a1.48,1.48,0,0,1-.58.16c-1.24.08-6.33.63-13.3,4.81a1.53,1.53,0,0,1-1.8-.12c-2.42-2-9.55-7.61-13.55-5.73a1.55,1.55,0,0,1-1.58-.13c-1.77-1.29-5.66-4.46-5.43-7.11.28-3.43-2.29-7.14-8.56-12.56-5.38-4.64-5.52-30.85-4.38-39.7a1.55,1.55,0,0,1,2.24-1.16c1.2.6,2.66-.36,2.72-8.52a1.57,1.57,0,0,0-1.76-1.56c-3.39.38-11.37-.68-20.79-15.24-12.42-19.2-15.9-28.62-32-15.54a1.53,1.53,0,0,1-1.21.34c-2.65-.43-12.34-3.35-22.26-23A1.47,1.47,0,0,0,100,68c-1.35-1.12-8.28-6.5-15.78-5.31a1.49,1.49,0,0,0-.85.46c-1.66,1.69-9.8,8.54-30.16,4-21-4.66-25.9-12.81-27-15.77a1.54,1.54,0,0,0-1.06-.94A51,51,0,0,0,14.38,48.8h-7A1.54,1.54,0,0,0,6,51Z"/></g></svg>